<svg width="23" height="22" viewBox="0 0 23 22" fill="none" xmlns="http://www.w3.org/2000/svg">
<path d="M3.96568 21.019L3.96563 21.019C3.64608 21.0823 3.3255 21.1403 3.00401 21.193L3.0033 21.1931C2.56759 21.2628 2.25968 20.8146 2.42194 20.4325C2.53851 20.1576 2.64541 19.8787 2.74242 19.5962L2.74531 19.5866L2.74762 19.5789L2.74778 19.5789C3.06605 18.6549 3.32611 17.5989 3.43033 16.6115C1.79329 14.9392 0.8 12.76 0.8 10.3763C0.8 5.06319 5.71345 0.8 11.7158 0.8C17.7181 0.8 22.6315 5.06319 22.6315 10.3763C22.6315 15.6893 17.7182 19.9524 11.716 19.9526C11.7159 19.9526 11.7158 19.9526 11.7158 19.9526V19.7526C10.6544 19.754 9.5975 19.6162 8.57202 19.3427L3.96568 21.019ZM3.96568 21.019C6.3574 20.5443 7.85522 19.9214 8.59406 19.5553L3.96568 21.019ZM4.72879 15.451L4.72872 15.451C3.34082 14.0591 2.53947 12.2841 2.53947 10.3763C2.53947 6.23433 6.44901 2.53947 11.7158 2.53947C16.9825 2.53947 20.892 6.23433 20.892 10.3763C20.892 14.5196 16.9825 18.2131 11.7158 18.2131L11.7154 18.2131C10.7883 18.2146 9.86498 18.0944 8.96912 17.8555C8.60321 17.7578 8.2141 17.7983 7.87622 17.9695C7.40289 18.2092 6.38126 18.6606 4.7246 19.0699C4.93774 18.2888 5.08689 17.4915 5.17047 16.6857L5.17062 16.6841C5.19218 16.4588 5.16377 16.2314 5.0874 16.0183C5.01103 15.8051 4.88858 15.6114 4.72879 15.451Z" fill="#9F9F9F" stroke="#9F9F9F" stroke-width="0.4"/>
<path d="M7.44659 11.4649C7.7353 11.1762 7.89749 10.7846 7.89749 10.3763C7.89749 9.96804 7.7353 9.57647 7.44659 9.28777C7.15789 8.99906 6.76632 8.83687 6.35802 8.83687C5.94973 8.83687 5.55816 8.99906 5.26945 9.28777C4.98075 9.57647 4.81855 9.96804 4.81855 10.3763C4.81855 10.7846 4.98075 11.1762 5.26945 11.4649C5.55816 11.7536 5.94973 11.9158 6.35802 11.9158C6.76632 11.9158 7.15789 11.7536 7.44659 11.4649ZM12.8045 11.4649C13.0932 11.1762 13.2554 10.7846 13.2554 10.3763C13.2554 9.96804 13.0932 9.57647 12.8045 9.28777C12.5158 8.99906 12.1242 8.83687 11.7159 8.83687C11.3076 8.83687 10.916 8.99906 10.6273 9.28777C10.3386 9.57647 10.1764 9.96804 10.1764 10.3763C10.1764 10.7846 10.3386 11.1762 10.6273 11.4649C10.916 11.7536 11.3076 11.9158 11.7159 11.9158C12.1242 11.9158 12.5158 11.7536 12.8045 11.4649ZM18.1623 11.4649C18.4511 11.1762 18.6132 10.7846 18.6132 10.3763C18.6132 9.96804 18.4511 9.57647 18.1623 9.28777C17.8736 8.99906 17.4821 8.83687 17.0738 8.83687C16.6655 8.83687 16.2739 8.99906 15.9852 9.28777C15.6965 9.57647 15.5343 9.96804 15.5343 10.3763C15.5343 10.7846 15.6965 11.1762 15.9852 11.4649C16.2739 11.7536 16.6655 11.9158 17.0738 11.9158C17.4821 11.9158 17.8736 11.7536 18.1623 11.4649Z" fill="#9F9F9F" stroke="#9F9F9F" stroke-width="0.4"/>
</svg>
