<svg width="26" height="19" viewBox="0 0 26 19" fill="none" xmlns="http://www.w3.org/2000/svg">
<path fill-rule="evenodd" clip-rule="evenodd" d="M23.75 19C23.75 19 25.3333 19 25.3333 17.4167C25.3333 15.8333 23.75 11.0833 17.4167 11.0833C11.0833 11.0833 9.5 15.8333 9.5 17.4167C9.5 19 11.0833 19 11.0833 19H23.75ZM11.0913 17.5053V17.5022V17.5053ZM11.1182 17.4167H23.7152C23.7226 17.4158 23.73 17.4147 23.7373 17.4135L23.75 17.4103C23.7468 16.9923 23.4856 15.7795 22.5467 14.687C21.6727 13.6626 20.1368 12.6667 17.4167 12.6667C14.6981 12.6667 13.1623 13.6642 12.2867 14.687C11.3478 15.7795 11.0849 16.9939 11.0833 17.4103C11.0949 17.4126 11.1065 17.4147 11.1182 17.4167ZM23.7421 17.5053V17.5022V17.5053ZM17.4167 7.91667C18.2565 7.91667 19.062 7.58304 19.6558 6.98917C20.2497 6.39531 20.5833 5.58985 20.5833 4.75C20.5833 3.91015 20.2497 3.10469 19.6558 2.51083C19.062 1.91696 18.2565 1.58333 17.4167 1.58333C16.5768 1.58333 15.7714 1.91696 15.1775 2.51083C14.5836 3.10469 14.25 3.91015 14.25 4.75C14.25 5.58985 14.5836 6.39531 15.1775 6.98917C15.7714 7.58304 16.5768 7.91667 17.4167 7.91667ZM22.1667 4.75C22.1667 5.37378 22.0438 5.99145 21.8051 6.56775C21.5664 7.14404 21.2165 7.66768 20.7754 8.10876C20.3343 8.54984 19.8107 8.89972 19.2344 9.13843C18.6581 9.37714 18.0404 9.5 17.4167 9.5C16.7929 9.5 16.1752 9.37714 15.5989 9.13843C15.0226 8.89972 14.499 8.54984 14.0579 8.10876C13.6168 7.66768 13.2669 7.14404 13.0282 6.56775C12.7895 5.99145 12.6667 5.37378 12.6667 4.75C12.6667 3.49022 13.1671 2.28204 14.0579 1.39124C14.9487 0.500445 16.1569 0 17.4167 0C18.6764 0 19.8846 0.500445 20.7754 1.39124C21.6662 2.28204 22.1667 3.49022 22.1667 4.75ZM10.982 11.5267C10.3486 11.3272 9.69576 11.1961 9.0345 11.1356C8.66294 11.1003 8.2899 11.0828 7.91667 11.0833C1.58333 11.0833 0 15.8333 0 17.4167C0 18.4727 0.52725 19 1.58333 19H8.25867C8.02395 18.5057 7.90689 17.9638 7.91667 17.4167C7.91667 15.8175 8.51358 14.1835 9.6425 12.8187C10.0273 12.3532 10.4753 11.9177 10.982 11.5267ZM7.79 12.6667C5.149 12.6983 3.64958 13.68 2.78667 14.687C1.84142 15.7858 1.58333 17.0034 1.58333 17.4167H6.33333C6.33333 15.7621 6.84475 14.1138 7.79 12.6667ZM2.375 5.54167C2.375 4.28189 2.87545 3.07371 3.76624 2.18291C4.65704 1.29211 5.86522 0.791667 7.125 0.791667C8.38478 0.791667 9.59296 1.29211 10.4838 2.18291C11.3746 3.07371 11.875 4.28189 11.875 5.54167C11.875 6.80145 11.3746 8.00963 10.4838 8.90042C9.59296 9.79122 8.38478 10.2917 7.125 10.2917C5.86522 10.2917 4.65704 9.79122 3.76624 8.90042C2.87545 8.00963 2.375 6.80145 2.375 5.54167ZM7.125 2.375C6.28515 2.375 5.47969 2.70863 4.88583 3.3025C4.29196 3.89636 3.95833 4.70181 3.95833 5.54167C3.95833 6.38152 4.29196 7.18697 4.88583 7.78084C5.47969 8.3747 6.28515 8.70833 7.125 8.70833C7.96485 8.70833 8.77031 8.3747 9.36417 7.78084C9.95804 7.18697 10.2917 6.38152 10.2917 5.54167C10.2917 4.70181 9.95804 3.89636 9.36417 3.3025C8.77031 2.70863 7.96485 2.375 7.125 2.375Z" fill="#9F9F9F"/>
</svg>
