<svg width="21" height="20" viewBox="0 0 21 20" fill="none" xmlns="http://www.w3.org/2000/svg">
<path d="M18.3038 17.9662V6.9148L10.1688 2.03378L2.03376 6.9148V17.9662H6.10128V15.1698C6.10128 14.0911 6.52982 13.0565 7.29262 12.2937C8.05543 11.5308 9.09002 11.1023 10.1688 11.1023C11.2476 11.1023 12.2822 11.5308 13.045 12.2937C13.8078 13.0565 14.2363 14.0911 14.2363 15.1698V17.9662H18.3038ZM12.2026 20V15.1698C12.2026 14.6304 11.9883 14.1131 11.6069 13.7317C11.2255 13.3503 10.7082 13.1361 10.1688 13.1361C9.62941 13.1361 9.11211 13.3503 8.73071 13.7317C8.34931 14.1131 8.13503 14.6304 8.13503 15.1698V20H2.03376C1.49437 20 0.977078 19.7857 0.595674 19.4043C0.21427 19.0229 0 18.5056 0 17.9662V6.9148C-3.37883e-06 6.5636 0.0909402 6.21838 0.263975 5.91276C0.437009 5.60714 0.686237 5.35154 0.98739 5.17085L9.12242 0.28983C9.4385 0.100181 9.80018 0 10.1688 0C10.5374 0 10.8991 0.100181 11.2152 0.28983L19.3502 5.17085C19.6513 5.35154 19.9006 5.60714 20.0736 5.91276C20.2466 6.21838 20.3376 6.5636 20.3376 6.9148V17.9662C20.3376 18.5056 20.1233 19.0229 19.7419 19.4043C19.3605 19.7857 18.8432 20 18.3038 20H12.2026Z" fill="#9F9F9F"/>
</svg>
